HIERARCHY
ROOT Hips
{
  OFFSET 0 0 0
  CHANNELS 6 Xposition Yposition Zposition Zrotation Yrotation Xrotation
  JOINT LeftThigh
  {
    OFFSET 8.409438 0 -5.917753
    CHANNELS 3 Zrotation Yrotation Xrotation
    JOINT LeftLeg
    {
      OFFSET 0 0 -42.358652
      CHANNELS 3 Zrotation Yrotation Xrotation
      JOINT LeftFoot
      {
        OFFSET 0 0 -39.357303
        CHANNELS 3 Zrotation Yrotation Xrotation
      }
    }
  }
  JOINT RightThigh
  {
    OFFSET -8.409438 0 -5.917753
    CHANNELS 3 Zrotation Yrotation Xrotation
    JOINT RightLeg
    {
      OFFSET 0 0 -42.358652
      CHANNELS 3 Zrotation Yrotation Xrotation
      JOINT RightFoot
      {
        OFFSET 0 0 -39.357303
        CHANNELS 3 Zrotation Yrotation Xrotation
      }
    }
  }
  JOINT SpineLow
  {
    OFFSET 0 0 4.719101
    CHANNELS 3 Zrotation Yrotation Xrotation
    JOINT SpineMid
    {
      OFFSET 0 0 12.899191
      CHANNELS 3 Zrotation Yrotation Xrotation
      JOINT Chest
      {
        OFFSET 0 0 12.899191
        CHANNELS 3 Zrotation Yrotation Xrotation
        JOINT LeftShoulder
        {
          OFFSET 7.550562 1.41573 9.438202
          CHANNELS 3 Zrotation Yrotation Xrotation
          JOINT LeftArm
          {
            OFFSET 9.155056 0 4.247191
            CHANNELS 3 Zrotation Yrotation Xrotation
            JOINT LeftForearm
            {
              OFFSET 0 0 25.771955
              CHANNELS 3 Zrotation Yrotation Xrotation
              JOINT LeftHand
              {
                OFFSET 0 0 25.197169
                CHANNELS 3 Zrotation Yrotation Xrotation
              }
            }
          }
        }
        JOINT RightShoulder
        {
          OFFSET -7.550562 1.41573 9.438202
          CHANNELS 3 Zrotation Yrotation Xrotation
          JOINT RightArm
          {
            OFFSET -9.155056 0 4.247191
            CHANNELS 3 Zrotation Yrotation Xrotation
            JOINT RightForearm
            {
              OFFSET 0 0 -25.771955
              CHANNELS 3 Zrotation Yrotation Xrotation
              JOINT RightHand
              {
                OFFSET 0 0 -25.197169
                CHANNELS 3 Zrotation Yrotation Xrotation
              }
            }
          }
        }
        JOINT Neck
        {
          OFFSET 0 0 15.101124
          CHANNELS 3 Zrotation Yrotation Xrotation
          JOINT Head
          {
            OFFSET 0 0 11.325843
            CHANNELS 3 Zrotation Yrotation Xrotation
            End Site
            {
              OFFSET 0 0 14.157303
            }
          }
        }
      }
    }
  }
}
MOTION
Frames: 6
Frame Time: 0.0
0.0  89.887642  0.0  0.190464  -21.048518  -95.465422  5.301726  -13.599881  4.005931  1.622793  0.821892  16.569047  0.794965  0.844783  0.520809  -12.779402  10.634816  -5.323366  -8.578032  5.870293  5.315286  6.38206  0.30855  -1.132062  0.118183  0.203661  0.803377  0.329773  0.55269  2.196987  0.329772  0.55269  2.196986  -10.195021  18.133569  5.004272  155.343571  43.648261  -162.770467  1.317639  -6.307034  41.458786  90.349288  -2.968644  0.981538  -3.231974  -9.014694  24.968111  80.751074  48.033539  35.598883  11.113983  15.066282  -25.528685  91.090475  5.039008  -12.031938  -2.255653  0.110242  -0.294014  -1.691686  0.083768  -0.220107  
0.0  89.887642  0.0  0.195145  -20.807623  -95.482351  5.069078  -13.623146  3.864733  1.485092  0.864686  16.664369  0.88574  0.875775  0.621063  -13.163892  10.637377  -5.518836  -8.443945  5.93893  5.665473  6.5938  0.375607  -1.100129  0.09446  0.20324  0.796773  0.264866  0.552354  2.178735  0.264866  0.552354  2.178736  -10.031338  18.141218  5.101711  155.301671  43.689438  -162.742832  1.411081  -6.315273  41.496946  90.241443  -2.822915  0.885541  -3.264579  -8.939547  24.892133  80.809345  47.812671  35.659758  10.827583  14.967314  -25.468059  90.853541  4.899312  -11.866362  -2.30864  0.107078  -0.222342  -1.731441  0.08115  -0.166355  
0.0  89.887642  0.0  0.175132  -20.574908  -95.495695  4.920704  -13.676163  3.818958  1.38862  0.913679  16.748916  0.874411  0.880358  0.651446  -13.36704  10.644824  -5.654272  -8.241888  5.992529  6.070908  6.632287  0.429205  -1.107072  0.087612  0.207079  0.793967  0.246252  0.563083  2.171025  0.246252  0.563083  2.171025  -9.974134  18.1199  5.188874  155.459586  43.779386  -162.666534  1.413468  -6.291464  41.471538  90.258859  -2.83318  0.915556  -3.302904  -8.880426  24.831819  80.660757  47.694548  35.557751  10.769196  14.947119  -25.382927  90.857284  4.802947  -11.736466  -2.447774  0.073333  -0.188618  -1.835808  0.055756  -0.141172  
0.0  89.887642  0.0  0.143643  -20.284936  -95.485464  4.608037  -13.712277  3.706581  1.360178  0.979686  16.893865  0.895872  0.867035  0.691038  -13.91444  10.619878  -5.946426  -8.162787  6.027393  6.520262  7.010374  0.535676  -1.116436  0.06673  0.206877  0.785882  0.189104  0.563241  2.148748  0.189104  0.563241  2.148748  -9.896777  18.118218  5.275387  155.296715  43.969512  -162.575959  1.272538  -6.243047  41.349709  90.174692  -2.711034  0.820344  -3.402522  -8.835275  24.759797  80.391669  47.65459  35.420324  10.669596  14.880254  -25.325308  90.915564  4.734033  -11.623559  -2.565407  0.04546  -0.14286  -1.924045  0.034695  -0.106957  
0.0  89.887642  0.0  0.109538  -20.076411  -95.516712  4.416739  -13.767459  3.685739  1.296239  1.036421  16.995127  0.901535  0.86062  0.714174  -14.077527  10.603374  -6.10883  -7.985743  6.090678  7.051776  7.167187  0.640828  -1.157908  0.065366  0.212046  0.79073  0.185586  0.577399  2.162005  0.185586  0.577399  2.162005  -9.897295  18.076007  5.298595  155.588985  44.125286  -162.438413  1.188555  -6.148207  41.34301  90.200729  -2.744816  0.815336  -3.410007  -8.785418  24.691849  80.169706  47.596507  35.260068  10.656726  14.863292  -25.247885  90.970575  4.588964  -11.548967  -2.71784  -0.014405  -0.138863  -2.038384  -0.010187  -0.104214  
0.0  89.887642  0.0  0.042665  -19.627205  -95.449861  4.043269  -13.851649  3.576909  1.220116  1.128818  17.093226  0.895783  0.843126  0.738743  -14.877236  10.532194  -6.551224  -7.611833  6.161301  7.69976  7.520705  0.750283  -1.171013  0.043876  0.21165  0.78924  0.126825  0.577022  2.157741  0.126825  0.577022  2.157741  -10.049367  17.989121  5.203301  155.523133  44.285855  -162.359303  0.811853  -6.075318  41.156887  90.198955  -2.747631  0.83339  -3.769925  -8.762481  24.487649  80.290344  47.463533  35.381216  10.549444  14.817862  -25.290508  91.098711  4.473402  -11.521775  -2.967802  -0.075372  -0.164496  -2.225872  -0.055732  -0.123742  
